# xmcd
#
# Track frame offsets: 
#        150
#        17942
#        32595
#        49338
#        72494
#        97744
#        111694
#        136004
#        152153
#        168305
#        180922
#        195076
#        210323
#
# Disc length: 3010 seconds
#
# Revision: 0
# Processed by: cddbd v1.5.1PL2 Copyright (c) Steve Scherf et al.
# Submitted via: ExactAudioCopy v0.95b3
#
DISCID=a40bc00d
DTITLE=Al Basile - Groovin' In The Mood Room
DYEAR=2006
DGENRE=Blues
TTITLE0=I Got TO Be The Boss
TTITLE1=How Much Better (Can It Get)
TTITLE2=She's On The Mainline
TTITLE3=Picked To Click
TTITLE4=Your Turn To Pay
TTITLE5=Baby Sister
TTITLE6=I'm In A Mood
TTITLE7=The Show Must Go On
TTITLE8=Your Rights
TTITLE9=Take My Word For It
TTITLE10=Be A Woman
TTITLE11=Coffee and Cadillacs
TTITLE12=You Satisfy
EXTD=
EXTT0=
EXTT1=
EXTT2=
EXTT3=
EXTT4=
EXTT5=
EXTT6=
EXTT7=
EXTT8=
EXTT9=
EXTT10=
EXTT11=
EXTT12=
PLAYORDER=
